<svg xmlns="http://www.w3.org/2000/svg" width="995" height="200" viewBox="0 0 995 200">
  <g id="Logo" fill="#004F9D">
    <path id="Union_1" d="M14.3,100.1a14.3,14.3,0,0,0,14.3,14.3H42.9V85.8H28.6A14.3,14.3,0,0,0,14.3,100.1Z" />
    <path id="Path_2" d="M57.2,100.1a14.3,14.3,0,0,0,14.3,14.3H85.8V85.8H71.5A14.3,14.3,0,0,0,57.2,100.1Z" />
    <path id="Path_3" d="M100.1,100.1a14.3,14.3,0,0,0,14.3,14.3h14.3V85.8H114.4A14.3,14.3,0,0,0,100.1,100.1Z" />
    <path id="Path_4" d="M142.9,100.1a14.3,14.3,0,0,0,14.3,14.3h14.3V85.8H157.2A14.3,14.3,0,0,0,142.9,100.1Z" />
    <path id="Path_5" d="M185.8,100.1a14.3,14.3,0,0,0,14.3,14.3H214.3V85.8H200.1A14.3,14.3,0,0,0,185.8,100.1Z" />
    <path id="Path_6" d="M228.6,100.1a14.3,14.3,0,0,0,14.3,14.3h14.3V85.8H242.9A14.3,14.3,0,0,0,228.6,100.1Z" />
    <path id="Path_7" d="M271.5,100.1a14.3,14.3,0,0,0,14.3,14.3H300.1V85.8H285.8A14.3,14.3,0,0,0,271.5,100.1Z" />
  </g>
  <g id="Logo-2" data-name="Logo" fill="#000">
    <path id="Path_8" d="M342.9,128.6H314.3V71.5h28.6a14.3,14.3,0,0,1,14.3,14.3v28.6A14.3,14.3,0,0,1,342.9,128.6Zm0-42.9H328.6v28.6h14.3a14.3,14.3,0,0,0,0-28.6Z" />
    <path id="Path_9" d="M400.1,128.6H371.5V71.5h28.6a14.3,14.3,0,0,1,14.3,14.3v28.6A14.3,14.3,0,0,1,400.1,128.6Zm0-42.9H385.8v28.6h14.3a14.3,14.3,0,0,0,0-28.6Z" />
    <path id="Path_10" d="M457.2,128.6H428.6V71.5h28.6a14.3,14.3,0,0,1,14.3,14.3v28.6A14.3,14.3,0,0,1,457.2,128.6Zm0-42.9H442.9v28.6h14.3a14.3,14.3,0,0,0,0-28.6Z" />
    <path id="Path_11" d="M514.3,128.6H485.8V71.5h28.6a14.3,14.3,0,0,1,14.3,14.3v28.6A14.3,14.3,0,0,1,514.3,128.6Zm0-42.9H500.1v28.6h14.3a14.3,14.3,0,0,0,0-28.6Z" />
    <path id="Path_12" d="M571.5,128.6H542.9V71.5h28.6a14.3,14.3,0,0,1,14.3,14.3v28.6A14.3,14.3,0,0,1,571.5,128.6Zm0-42.9H557.2v28.6h14.3a14.3,14.3,0,0,0,0-28.6Z" />
    <path id="Path_13" d="M628.6,128.6H600.1V71.5h28.6a14.3,14.3,0,0,1,14.3,14.3v28.6A14.3,14.3,0,0,1,628.6,128.6Zm0-42.9H614.3v28.6h14.3a14.3,14.3,0,0,0,0-28.6Z" />
    <path id="Path_14" d="M685.8,128.6H657.2V71.5h28.6a14.3,14.3,0,0,1,14.3,14.3v28.6A14.3,14.3,0,0,1,685.8,128.6Zm0-42.9H671.5v28.6h14.3a14.3,14.3,0,0,0,0-28.6Z" />
    <path id="Path_15" d="M742.9,128.6H714.3V71.5h28.6a14.3,14.3,0,0,1,14.3,14.3v28.6A14.3,14.3,0,0,1,742.9,128.6Zm0-42.9H728.6v28.6h14.3a14.3,14.3,0,0,0,0-28.6Z" />
    <path id="Path_16" d="M800.1,128.6H771.5V71.5h28.6a14.3,14.3,0,0,1,14.3,14.3v28.6A14.3,14.3,0,0,1,800.1,128.6Zm0-42.9H785.8v28.6h14.3a14.3,14.3,0,0,0,0-28.6Z" />
    <path id="Path_17" d="M857.2,128.6H828.6V71.5h28.6a14.3,14.3,0,0,1,14.3,14.3v28.6A14.3,14.3,0,0,1,857.2,128.6Zm0-42.9H842.9v28.6h14.3a14.3,14.3,0,0,0,0-28.6Z" />
    <path id="Path_18" d="M914.3,128.6H885.8V71.5h28.6a14.3,14.3,0,0,1,14.3,14.3v28.6A14.3,14.3,0,0,1,914.3,128.6Zm0-42.9H900.1v28.6h14.3a14.3,14.3,0,0,0,0-28.6Z" />
    <path id="Path_19" d="M971.5,128.6H942.9V71.5h28.6a14.3,14.3,0,0,1,14.3,14.3v28.6A14.3,14.3,0,0,1,971.5,128.6Zm0-42.9H957.2v28.6h14.3a14.3,14.3,0,0,0,0-28.6Z" />
  </g>
</svg>