<svg xmlns="http://www.w3.org/2000/svg" viewBox="0 0 200 200">
  <path fill="#FF0000" d="M100 0C44.8 0 0 44.8 0 100s44.8 100 100 100 100-44.8 100-100S155.2 0 100 0zm0 180c-44.1 0-80-35.9-80-80s35.9-80 80-80 80 35.9 80 80-35.9 80-80 80z"/>
  <path fill="#FF8000" d="M100 20c-44.1 0-80 35.9-80 80s35.9 80 80 80V20z"/>
  <path fill="#FFFF00" d="M100 20v160c44.1 0 80-35.9 80-80S144.1 20 100 20z"/>
  <path fill="#008000" d="M20 100c0 44.1 35.9 80 80 80V20C55.9 20 20 55.9 20 100z"/>
  <path fill="#0000FF" d="M20 100v0c0-44.1 35.9-80 80-80v160c-44.1 0-80-35.9-80-80z"/>
  <path fill="#800080" d="M100 180c44.1 0 80-35.9 80-80H20c0 44.1 35.9 80 80 80z"/>
</svg>